<?xml version="1.0" encoding="UTF-8"?>
<!DOCTYPE svg PUBLIC "-//W3C//DTD SVG 1.1//EN" "http://www.w3.org/Graphics/SVG/1.1/DTD/svg11.dtd">
<svg xmlns="http://www.w3.org/2000/svg" version="1.1" width="426px" height="376px" style="shape-rendering:geometricPrecision; text-rendering:geometricPrecision; image-rendering:optimizeQuality; fill-rule:evenodd; clip-rule:evenodd" xmlns:xlink="http://www.w3.org/1999/xlink">
<g><path style="opacity:1" fill="#fd992d" d="M 115.5,89.5 C 116.166,91.838 116.166,94.0047 115.5,96C 125.394,100.05 133.394,106.55 139.5,115.5C 143.531,118.541 147.531,121.541 151.5,124.5C 151.343,125.873 151.51,127.207 152,128.5C 155.136,132.47 158.303,136.303 161.5,140C 160.833,140.333 160.167,140.667 159.5,141C 165.774,142.856 171.441,145.689 176.5,149.5C 176.5,150.5 176.5,151.5 176.5,152.5C 178.685,152.704 180.685,153.37 182.5,154.5C 185.503,158.189 188.17,162.189 190.5,166.5C 195.738,169.07 200.072,172.736 203.5,177.5C 204.325,178.386 205.325,178.719 206.5,178.5C 207.167,178.833 207.833,179.167 208.5,179.5C 208.707,182.745 207.207,184.745 204,185.5C 200.902,189.383 198.068,193.383 195.5,197.5C 194.167,197.5 192.833,197.5 191.5,197.5C 191.5,198.5 191.5,199.5 191.5,200.5C 188.545,201.455 186.545,203.455 185.5,206.5C 185.5,207.167 185.167,207.5 184.5,207.5C 182.629,207.859 181.129,208.859 180,210.5C 179.586,210.043 179.086,209.709 178.5,209.5C 177.975,213.696 175.641,215.696 171.5,215.5C 171.5,216.833 171.5,218.167 171.5,219.5C 170.127,219.343 168.793,219.51 167.5,220C 166.359,220.741 166.359,221.575 167.5,222.5C 164.743,223.029 162.243,224.029 160,225.5C 159.333,224.833 158.667,224.167 158,223.5C 157.3,225.032 156.134,226.032 154.5,226.5C 154.167,227.333 153.833,228.167 153.5,229C 154.618,231.059 155.285,233.226 155.5,235.5C 154.127,235.343 152.793,235.51 151.5,236C 150.359,236.741 150.359,237.575 151.5,238.5C 150.311,239.429 148.978,239.762 147.5,239.5C 147.5,240.833 147.5,242.167 147.5,243.5C 145.8,243.374 144.3,242.707 143,241.5C 140.98,242.032 140.147,243.365 140.5,245.5C 141.675,245.281 142.675,245.614 143.5,246.5C 142.271,247.281 140.938,247.781 139.5,248C 140.833,249 140.833,250 139.5,251C 137.423,251.192 135.423,251.692 133.5,252.5C 134.433,253.985 134.1,255.318 132.5,256.5C 131.833,256.5 131.167,256.5 130.5,256.5C 125.035,256.514 120.201,254.848 116,251.5C 113.923,250.983 111.923,250.316 110,249.5C 107.669,242.684 107.003,235.684 108,228.5C 109.878,226.957 111.378,225.124 112.5,223C 113.449,222.383 114.282,222.549 115,223.5C 115.49,222.207 115.657,220.873 115.5,219.5C 117.5,218.833 119.5,218.167 121.5,217.5C 122.847,214.16 124.18,210.826 125.5,207.5C 133.274,198.89 141.274,190.39 149.5,182C 144.63,177.298 139.963,172.465 135.5,167.5C 134.707,163.536 132.54,160.536 129,158.5C 128.517,157.552 128.351,156.552 128.5,155.5C 127.325,155.719 126.325,155.386 125.5,154.5C 122.321,150.822 118.988,147.322 115.5,144C 112.828,144.583 110.828,143.416 109.5,140.5C 108.583,139.873 107.583,139.539 106.5,139.5C 105.329,135.838 103.496,132.504 101,129.5C 99.8904,127.963 98.3904,127.297 96.5,127.5C 96.6495,126.448 96.4828,125.448 96,124.5C 93.8333,123.667 92.3333,122.167 91.5,120C 89.5273,119.505 87.5273,119.338 85.5,119.5C 85.5,119.167 85.5,118.833 85.5,118.5C 85.5,117.5 85.5,116.5 85.5,115.5C 84.325,115.719 83.325,115.386 82.5,114.5C 79.8027,110.302 76.3027,106.969 72,104.5C 70.7267,102.286 69.7267,99.953 69,97.5C 68.6582,99.6192 67.8249,99.9526 66.5,98.5C 65.6576,93.213 65.3243,87.8797 65.5,82.5C 65.7497,80.326 66.7497,78.6594 68.5,77.5C 74.0026,70.9345 81.0026,68.7678 89.5,71C 91.4362,73.603 93.9362,75.4363 97,76.5C 97.4828,77.448 97.6495,78.448 97.5,79.5C 99.1992,79.3398 100.866,79.5065 102.5,80C 103.333,81.5 104.5,82.6667 106,83.5C 106.483,84.448 106.649,85.448 106.5,86.5C 109.743,86.9143 112.743,87.9143 115.5,89.5 Z"/></g>
<g><path style="opacity:1" fill="#e89341" d="M 115.5,89.5 C 112.743,87.9143 109.743,86.9143 106.5,86.5C 106.649,85.448 106.483,84.448 106,83.5C 104.5,82.6667 103.333,81.5 102.5,80C 100.866,79.5065 99.1992,79.3398 97.5,79.5C 97.6495,78.448 97.4828,77.448 97,76.5C 93.9362,75.4363 91.4362,73.603 89.5,71C 81.0026,68.7678 74.0026,70.9345 68.5,77.5C 70.3459,73.4886 73.3459,70.6552 77.5,69C 84.3846,67.9021 91.0513,68.5687 97.5,71C 103.703,77.0352 109.703,83.2019 115.5,89.5 Z"/></g>
<g><path style="opacity:0.067" fill="#d2995f" d="M 65.5,82.5 C 65.3243,87.8797 65.6576,93.213 66.5,98.5C 65.7784,98.0825 65.2784,97.4158 65,96.5C 64.1849,91.6478 64.3516,86.9811 65.5,82.5 Z"/></g>
<g><path style="opacity:1" fill="#e89749" d="M 115.5,89.5 C 128.135,100.468 140.135,112.135 151.5,124.5C 147.531,121.541 143.531,118.541 139.5,115.5C 133.394,106.55 125.394,100.05 115.5,96C 116.166,94.0047 116.166,91.838 115.5,89.5 Z"/></g>
<g><path style="opacity:0.576" fill="#cd8239" d="M 85.5,118.5 C 79.5914,114.098 74.0914,109.098 69,103.5C 67.9055,101.922 67.0722,100.255 66.5,98.5C 67.8249,99.9526 68.6582,99.6192 69,97.5C 69.7267,99.953 70.7267,102.286 72,104.5C 76.3027,106.969 79.8027,110.302 82.5,114.5C 83.325,115.386 84.325,115.719 85.5,115.5C 85.5,116.5 85.5,117.5 85.5,118.5 Z"/></g>
<g><path style="opacity:0.961" fill="#25803c" d="M 315.5,112.5 C 311.008,110.082 306.175,109.082 301,109.5C 295.799,109.664 290.965,110.664 286.5,112.5C 292.389,106.907 299.389,105.074 307.5,107C 310.756,108.116 313.422,109.949 315.5,112.5 Z"/></g>
<g><path style="opacity:0.999" fill="#073660" d="M 207.5,106.5 C 213.892,105.791 219.892,106.957 225.5,110C 249.028,133.862 272.861,157.362 297,180.5C 297.667,181.833 297.667,183.167 297,184.5C 251.14,229.027 205.973,274.194 161.5,320C 152.167,326 142.833,326 133.5,320C 125.654,311.367 124.487,301.867 130,291.5C 165.876,255.292 201.376,218.792 236.5,182C 222.346,167.179 208.179,152.345 194,137.5C 189.299,122.92 193.799,112.586 207.5,106.5 Z"/></g>
<g><path style="opacity:1" fill="#049c3a" d="M 315.5,112.5 C 315.281,113.675 315.614,114.675 316.5,115.5C 330.581,129.581 344.581,143.581 358.5,157.5C 359.417,158.127 360.417,158.461 361.5,158.5C 365.771,161.101 369.437,164.434 372.5,168.5C 376.201,172.873 379.534,177.54 382.5,182.5C 377.323,188.843 371.656,194.676 365.5,200C 366.056,200.383 366.389,200.883 366.5,201.5C 364.105,204.861 361.105,207.528 357.5,209.5C 356.167,209.5 354.833,209.5 353.5,209.5C 353.349,213.314 351.349,214.981 347.5,214.5C 347.675,217.329 346.342,218.996 343.5,219.5C 341.306,222.792 339.306,226.125 337.5,229.5C 333.108,234.894 328.108,239.561 322.5,243.5C 316.537,244.53 310.537,244.697 304.5,244C 302.091,242.799 300.091,241.133 298.5,239C 297.552,238.517 296.552,238.351 295.5,238.5C 293.166,232.466 291.832,226.133 291.5,219.5C 296.719,212.609 302.719,206.276 309.5,200.5C 310.63,199.378 311.297,198.044 311.5,196.5C 313.713,195.395 315.88,195.395 318,196.5C 318.5,196 319,195.5 319.5,195C 318.027,194.29 317.36,193.124 317.5,191.5C 320.504,190.243 323.337,188.577 326,186.5C 327.202,184.323 327.702,181.989 327.5,179.5C 324.846,178.189 322.179,176.855 319.5,175.5C 311.545,166.54 303.545,157.54 295.5,148.5C 294.311,147.571 292.978,147.238 291.5,147.5C 288.509,142.021 285.342,136.688 282,131.5C 280.69,126.548 281.69,122.215 285,118.5C 285.402,117.128 285.902,115.795 286.5,114.5C 286.376,113.893 286.043,113.56 285.5,113.5C 285.5,112.833 285.833,112.5 286.5,112.5C 290.965,110.664 295.799,109.664 301,109.5C 306.175,109.082 311.008,110.082 315.5,112.5 Z"/></g>
<g><path style="opacity:1" fill="#e6923c" d="M 85.5,119.5 C 87.5273,119.338 89.5273,119.505 91.5,120C 92.3333,122.167 93.8333,123.667 96,124.5C 96.4828,125.448 96.6495,126.448 96.5,127.5C 98.3904,127.297 99.8904,127.963 101,129.5C 103.496,132.504 105.329,135.838 106.5,139.5C 99.4736,132.806 92.4736,126.139 85.5,119.5 Z"/></g>
<g><path style="opacity:0.082" fill="#3b7f49" d="M 285.5,113.5 C 286.043,113.56 286.376,113.893 286.5,114.5C 285.902,115.795 285.402,117.128 285,118.5C 281.69,122.215 280.69,126.548 282,131.5C 285.342,136.688 288.509,142.021 291.5,147.5C 279.248,137.881 277.248,126.548 285.5,113.5 Z"/></g>
<g><path style="opacity:1" fill="#ee963d" d="M 151.5,124.5 C 162.468,133.8 172.801,143.8 182.5,154.5C 180.685,153.37 178.685,152.704 176.5,152.5C 176.5,151.5 176.5,150.5 176.5,149.5C 171.441,145.689 165.774,142.856 159.5,141C 160.167,140.667 160.833,140.333 161.5,140C 158.303,136.303 155.136,132.47 152,128.5C 151.51,127.207 151.343,125.873 151.5,124.5 Z"/></g>
<g><path style="opacity:0.537" fill="#2b7c3b" d="M 315.5,112.5 C 331.167,127.5 346.5,142.833 361.5,158.5C 360.417,158.461 359.417,158.127 358.5,157.5C 344.581,143.581 330.581,129.581 316.5,115.5C 315.614,114.675 315.281,113.675 315.5,112.5 Z"/></g>
<g><path style="opacity:0.2" fill="#e6963f" d="M 106.5,139.5 C 107.583,139.539 108.583,139.873 109.5,140.5C 110.828,143.416 112.828,144.583 115.5,144C 118.988,147.322 122.321,150.822 125.5,154.5C 126.325,155.386 127.325,155.719 128.5,155.5C 128.351,156.552 128.517,157.552 129,158.5C 132.54,160.536 134.707,163.536 135.5,167.5C 125.199,158.867 115.533,149.533 106.5,139.5 Z"/></g>
<g><path style="opacity:0.031" fill="#347f44" d="M 291.5,147.5 C 292.978,147.238 294.311,147.571 295.5,148.5C 303.545,157.54 311.545,166.54 319.5,175.5C 309.833,166.5 300.5,157.167 291.5,147.5 Z"/></g>
<g><path style="opacity:1" fill="#d58d49" d="M 182.5,154.5 C 190.833,162.167 198.833,170.167 206.5,178.5C 205.325,178.719 204.325,178.386 203.5,177.5C 200.072,172.736 195.738,169.07 190.5,166.5C 188.17,162.189 185.503,158.189 182.5,154.5 Z"/></g>
<g><path style="opacity:0.765" fill="#d18e49" d="M 208.5,179.5 C 209.848,180.527 210.348,181.86 210,183.5C 205.298,188.37 200.465,193.037 195.5,197.5C 198.068,193.383 200.902,189.383 204,185.5C 207.207,184.745 208.707,182.745 208.5,179.5 Z"/></g>
<g><path style="opacity:1" fill="#2a883f" d="M 319.5,175.5 C 322.179,176.855 324.846,178.189 327.5,179.5C 327.702,181.989 327.202,184.323 326,186.5C 323.337,188.577 320.504,190.243 317.5,191.5C 317.36,193.124 318.027,194.29 319.5,195C 319,195.5 318.5,196 318,196.5C 315.88,195.395 313.713,195.395 311.5,196.5C 315.963,191.535 320.63,186.702 325.5,182C 323.294,179.963 321.294,177.797 319.5,175.5 Z"/></g>
<g><path style="opacity:0.341" fill="#2e833f" d="M 372.5,168.5 C 377.479,172.812 382.146,177.479 386.5,182.5C 380.225,189.293 373.559,195.627 366.5,201.5C 366.389,200.883 366.056,200.383 365.5,200C 371.656,194.676 377.323,188.843 382.5,182.5C 379.534,177.54 376.201,172.873 372.5,168.5 Z"/></g>
<g><path style="opacity:0.212" fill="#d0944f" d="M 195.5,197.5 C 192.208,200.49 188.874,203.49 185.5,206.5C 186.545,203.455 188.545,201.455 191.5,200.5C 191.5,199.5 191.5,198.5 191.5,197.5C 192.833,197.5 194.167,197.5 195.5,197.5 Z"/></g>
<g><path style="opacity:0.827" fill="#328146" d="M 311.5,196.5 C 311.297,198.044 310.63,199.378 309.5,200.5C 302.719,206.276 296.719,212.609 291.5,219.5C 292.128,216.91 293.295,214.577 295,212.5C 300.369,206.964 305.869,201.63 311.5,196.5 Z"/></g>
<g><path style="opacity:0.835" fill="#2f8d43" d="M 357.5,209.5 C 351.167,216.5 344.5,223.167 337.5,229.5C 339.306,226.125 341.306,222.792 343.5,219.5C 346.342,218.996 347.675,217.329 347.5,214.5C 351.349,214.981 353.349,213.314 353.5,209.5C 354.833,209.5 356.167,209.5 357.5,209.5 Z"/></g>
<g><path style="opacity:1" fill="#eb963e" d="M 184.5,207.5 C 169.702,222.799 154.702,237.965 139.5,253C 137.423,254.705 135.09,255.872 132.5,256.5C 134.1,255.318 134.433,253.985 133.5,252.5C 135.423,251.692 137.423,251.192 139.5,251C 140.833,250 140.833,249 139.5,248C 140.938,247.781 142.271,247.281 143.5,246.5C 142.675,245.614 141.675,245.281 140.5,245.5C 140.147,243.365 140.98,242.032 143,241.5C 144.3,242.707 145.8,243.374 147.5,243.5C 147.5,242.167 147.5,240.833 147.5,239.5C 148.978,239.762 150.311,239.429 151.5,238.5C 150.359,237.575 150.359,236.741 151.5,236C 152.793,235.51 154.127,235.343 155.5,235.5C 155.285,233.226 154.618,231.059 153.5,229C 153.833,228.167 154.167,227.333 154.5,226.5C 156.134,226.032 157.3,225.032 158,223.5C 158.667,224.167 159.333,224.833 160,225.5C 162.243,224.029 164.743,223.029 167.5,222.5C 166.359,221.575 166.359,220.741 167.5,220C 168.793,219.51 170.127,219.343 171.5,219.5C 171.5,218.167 171.5,216.833 171.5,215.5C 175.641,215.696 177.975,213.696 178.5,209.5C 179.086,209.709 179.586,210.043 180,210.5C 181.129,208.859 182.629,207.859 184.5,207.5 Z"/></g>
<g><path style="opacity:0.718" fill="#2f8944" d="M 291.5,219.5 C 291.832,226.133 293.166,232.466 295.5,238.5C 296.552,238.351 297.552,238.517 298.5,239C 300.091,241.133 302.091,242.799 304.5,244C 310.537,244.697 316.537,244.53 322.5,243.5C 308.401,250.523 297.901,246.857 291,232.5C 290.186,227.98 290.353,223.646 291.5,219.5 Z"/></g>
<g><path style="opacity:1" fill="#e39140" d="M 125.5,207.5 C 124.18,210.826 122.847,214.16 121.5,217.5C 119.5,218.167 117.5,218.833 115.5,219.5C 115.657,220.873 115.49,222.207 115,223.5C 114.282,222.549 113.449,222.383 112.5,223C 111.378,225.124 109.878,226.957 108,228.5C 107.003,235.684 107.669,242.684 110,249.5C 111.923,250.316 113.923,250.983 116,251.5C 120.201,254.848 125.035,256.514 130.5,256.5C 118.685,259.342 110.185,255.008 105,243.5C 103.873,237.245 104.54,231.245 107,225.5C 112.725,218.94 118.892,212.94 125.5,207.5 Z"/></g>
</svg>
